Coordinates
version=1
nRows=14
nColumns=40
inDegrees=yes

Units are S.I. units (second, meters, Newtons, ...)
If the header above contains a line with 'inDegrees', this indicates whether rotational values are in degrees (yes) or radians (no).

endheader
time	pelvis_tilt	pelvis_list	pelvis_rotation	pelvis_tx	pelvis_ty	pelvis_tz	hip_flexion_r	hip_adduction_r	hip_rotation_r	knee_angle_r	knee_angle_r_beta	ankle_angle_r	subtalar_angle_r	mtp_angle_r	hip_flexion_l	hip_adduction_l	hip_rotation_l	knee_angle_l	knee_angle_l_beta	ankle_angle_l	subtalar_angle_l	mtp_angle_l	lumbar_extension	lumbar_bending	lumbar_rotation	arm_flex_r	arm_add_r	arm_rot_r	elbow_flex_r	pro_sup_r	wrist_flex_r	wrist_dev_r	arm_flex_l	arm_add_l	arm_rot_l	elbow_flex_l	pro_sup_l	wrist_flex_l	wrist_dev_l
      7.75833333	    -15.64140203	      1.05896309	      8.61449433	     -0.24552257	      1.06074095	      0.02515595	     61.58925198	    -13.39389767	      0.08563253	     84.01441238	      1.46632812	    -24.07604587	    -16.87601321	      0.00000000	     86.49259630	      1.79045137	      5.84345444	     79.72218962	      1.39141470	     -8.71040925	     -6.73758833	      0.00000000	    -48.65996441	      1.97967321	     -3.19245641	     84.92222379	     -8.30711884	     -7.00468214	     36.29910957	      0.93593105	      0.00000000	      0.00000000	     89.77459549	     -1.68235702	      6.01071996	     29.87161109	     89.36852714	      0.00000000	      0.00000000
      7.76666667	    -15.66602175	      0.74676836	      8.49387238	     -0.24573498	      1.05945835	      0.02546319	     63.44142719	    -13.12594612	      0.72035566	     87.78754320	      1.53218167	    -22.20484481	    -15.95104285	      0.00000000	     84.21500334	      1.54233259	      5.83215124	     76.17774115	      1.32955240	     -9.95168884	     -7.82863423	      0.00000000	    -48.45099944	      2.24908694	     -2.84748934	     84.89073091	     -8.34776304	     -6.67310309	     36.35966507	      0.93837269	      0.00000000	      0.00000000	     89.76219144	     -1.69040397	      5.86541792	     29.64324180	     89.36868900	      0.00000000	      0.00000000
      7.77500000	    -16.11002840	      0.56705290	      8.50700839	     -0.24643716	      1.05798783	      0.02512198	     65.94566289	    -13.24586179	      1.40963204	     91.41136938	      1.59542937	    -20.85514789	    -14.97619754	      0.00000000	     82.13421578	      1.57251532	      5.72440724	     72.36366018	      1.26298413	    -11.42424472	     -9.15505568	      0.00000000	    -47.85841388	      2.52286297	     -2.71878266	     84.83961708	     -8.39957468	     -6.30820249	     36.50540503	      0.94102815	      0.00000000	      0.00000000	     89.74588476	     -1.62777394	      5.39475258	     29.36092003	     89.36714353	      0.00000000	      0.00000000
      7.78333333	    -15.95355789	     -0.10068066	      8.23090139	     -0.24634088	      1.05735252	      0.02584366	     67.72456989	    -12.69058128	      1.54244365	     94.83228003	      1.65513552	    -19.62419396	    -14.77474262	      0.00000000	     79.49646234	      0.88431937	      6.03396079	     68.75507783	      1.20000249	    -12.58623707	     -9.32620791	      0.00000000	    -47.86082662	      2.98492571	     -1.99346312	     84.89655991	     -8.35672308	     -6.17224428	     36.58711088	      0.93742343	      0.00000000	      0.00000000	     89.72915172	     -1.66360915	      5.14418047	     29.10862122	     89.37377358	      0.00000000	      0.00000000
      7.79166667	    -15.97352288	      0.13441887	      7.87774286	     -0.24612356	      1.05670612	      0.02571147	     69.88873696	    -12.69109121	      2.81974296	     98.26247115	      1.71500365	    -17.62792501	    -12.82905323	      0.00000000	     76.88125148	      0.39050587	      5.25046480	     65.16281483	      1.13730567	    -14.28492329	    -10.30485736	      0.00000000	    -47.76739320	      2.74595505	     -1.92886235	     84.80430317	     -8.34260333	     -5.76015247	     36.71866245	      0.92283278	      0.00000000	      0.00000000	     89.71366723	     -1.65455035	      4.53885925	     28.81844059	     89.37186508	      0.00000000	      0.00000000
      7.80000000	    -16.10345869	      0.06410346	      7.70256200	     -0.24613849	      1.05627435	      0.02550349	     72.17534052	    -12.69202458	      3.63974132	    101.45407013	      1.77070756	    -16.01545293	    -11.57405976	      0.00000000	     74.15914151	      0.10022007	      5.02866508	     61.44059589	      1.07234069	    -15.45524792	    -10.79605140	      0.00000000	    -47.57703251	      2.86059065	     -1.77616265	     84.82803621	     -8.25902071	     -5.47257656	     36.77395158	      0.94661454	      0.00000000	      0.00000000	     89.68346208	     -1.70470214	      4.13895207	     28.61509179	     89.36066453	      0.00000000	      0.00000000
      7.80833333	    -15.94739306	     -0.80812675	      7.36672982	     -0.24560119	      1.05605465	      0.02616061	     74.09187372	    -12.05721917	      3.50555823	    104.38344421	      1.82183479	    -15.10101488	    -11.41887472	      0.00000000	     71.50561119	     -0.83416819	      5.37801767	     58.17109057	      1.01527706	    -16.06638764	    -10.75994945	      0.00000000	    -47.59648547	      3.46537799	     -0.90121208	     84.88987683	     -8.12830605	     -5.35320632	     36.76725651	      0.94372813	      0.00000000	      0.00000000	     89.66171714	     -1.78017933	      3.94607684	     28.24872619	     89.36790734	      0.00000000	      0.00000000
      7.81666667	    -16.00544592	     -0.47158852	      7.05116013	     -0.24528756	      1.05625320	      0.02567391	     76.35987554	    -12.13667213	      4.82022416	    107.21904402	      1.87132534	    -12.82054445	     -9.42262509	      0.00000000	     68.65279275	     -1.08184168	      4.65993110	     54.59623368	      0.95288404	    -17.71479639	    -11.06925440	      0.00000000	    -47.57513808	      3.22027414	     -0.96610939	     85.02772842	     -8.00615096	     -5.03178276	     36.63921402	      0.93660810	      0.00000000	      0.00000000	     89.64280486	     -1.78772771	      3.14633314	     28.08591978	     89.36201165	      0.00000000	      0.00000000
      7.82500000	    -16.07235575	     -1.06286598	      6.82278561	     -0.24487951	      1.05653114	      0.02583879	     78.49016820	    -11.81072309	      4.91318155	    109.69208793	      1.91448810	    -11.32966548	     -8.98413628	      0.00000000	     66.17129842	     -1.84346188	      4.81350361	     51.46036302	      0.89815277	    -18.86858958	    -10.65923137	      0.00000000	    -47.48585921	      3.69374880	     -0.38739065	     85.14815919	     -7.97183273	     -4.49467678	     36.59167722	      0.94490212	      0.00000000	      0.00000000	     89.61839371	     -1.83660719	      2.84060849	     27.85422241	     89.36648534	      0.00000000	      0.00000000
      7.83333333	    -15.97514615	     -1.06467179	      6.81482025	     -0.24423143	      1.05722022	      0.02485317	     80.54927087	    -12.06179880	      5.70117238	    112.09801005	      1.95647936	     -9.50453535	     -7.54485188	      0.00000000	     63.37156978	     -1.88920044	      4.85942961	     48.40139685	      0.84476374	    -19.81857508	    -10.73264564	      0.00000000	    -47.60627924	      3.96607855	     -0.39560088	     85.35816766	     -7.73156586	     -4.58673535	     36.34964036	      0.93371586	      0.00000000	      0.00000000	     89.61513022	     -1.87415887	      2.32266357	     27.59250674	     89.36098936	      0.00000000	      0.00000000
      7.84166667	    -16.15350782	     -1.60990891	      6.64055869	     -0.24395553	      1.05763849	      0.02479248	     82.83192194	    -11.89390224	      5.75347620	    114.06782239	      1.99085907	     -7.94653584	     -7.47253722	      0.00000000	     61.19633255	     -2.52588318	      5.28580730	     45.68237911	      0.79730793	    -20.78152006	    -10.03260961	      0.00000000	    -47.43737330	      4.45334373	      0.07890425	     85.53178630	     -7.61278179	     -4.24236344	     36.17604770	      0.92635345	      0.00000000	      0.00000000	     89.61060299	     -1.97049512	      2.19581770	     27.41932082	     89.36320988	      0.00000000	      0.00000000
      7.85000000	    -16.06651760	     -1.69393693	      6.54343240	     -0.24340864	      1.05840780	      0.02415622	     84.86536476	    -12.05069729	      6.29762715	    115.89618309	      2.02276999	     -6.65885681	     -6.28889179	      0.00000000	     58.73448965	     -2.80868547	      5.30967968	     43.27142879	      0.75522890	    -21.46569100	     -9.45137661	      0.00000000	    -47.55927712	      4.70137987	      0.14778792	     85.79837734	     -7.24756810	     -4.58347986	     35.82024970	      0.92478001	      0.00000000	      0.00000000	     89.61240980	     -2.09473579	      1.90269782	     27.21458212	     89.36641543	      0.00000000	      0.00000000
      7.85833333	    -16.10905029	     -1.91056848	      6.44876572	     -0.24290741	      1.05920114	      0.02374236	     86.97822940	    -12.15298400	      6.51916266	    117.34032567	      2.04797503	     -4.90409621	     -5.78732599	      0.00000000	     56.59545061	     -3.21275756	      5.36648632	     41.16146426	      0.71840308	    -22.15999566	     -8.94329485	      0.00000000	    -47.56255709	      5.00510705	      0.34936299	     85.96701214	     -7.02720635	     -4.68601084	     35.63439116	      0.92042173	      0.00000000	      0.00000000	     89.61353143	     -2.19099865	      1.87273684	     26.98874364	     89.36901672	      0.00000000	      0.00000000
      7.86666667	    -16.20509639	     -2.33484049	      6.46157527	     -0.24263131	      1.05986883	      0.02345476	     89.09599732	    -12.31510918	      6.41473534	    118.46726562	      2.06764384	     -4.37178218	     -5.90970553	      0.00000000	     54.90909610	     -3.70769802	      5.54285045	     39.56335360	      0.69051078	    -22.94760553	     -8.43609368	      0.00000000	    -47.49855508	      5.51449604	      0.60992264	     86.12589344	     -6.81523886	     -4.81898404	     35.44268171	      0.91426491	      0.00000000	      0.00000000	     89.62080188	     -2.34573171	      1.89721071	     26.81884896	     89.36532309	      0.00000000	      0.00000000
